# xmcd
#
# Track frame offsets: 
#        225
#        11937
#        24805
#        33257
#        45535
#        58062
#        82852
#        93235
#        113780
#        124610
#        136097
#        156895
#        162620
#        178145
#        189642
#
# Disc length: 2857 seconds
#
# Revision: 0
# Processed by: cddbd v1.4PL0 Copyright (c) Steve Scherf et al.
# Submitted via: ExactAudioCopy v0.95a3
#
DISCID=bb0b260f
DTITLE=Rade Serbedzija - Ne daj se Ines
DYEAR=1989
DGENRE=Blues
TTITLE0=Instrumental
TTITLE1=Iz zbirke: Ispovest huligana
TTITLE2=Djevojcici mjesto igracke
TTITLE3=Annabelle Lee
TTITLE4=Barbara
TTITLE5=Ne daj se Ines
TTITLE6=Anastazija
TTITLE7=Popodnevna pjesma
TTITLE8=Pa to je krasno
TTITLE9=Cekaj me
TTITLE10=Svakidasnja jadikovka
TTITLE11=Instrumental
TTITLE12=Kuca pored mora
TTITLE13=Noci
TTITLE14=Ne daj se Ines
EXTD=
EXTT0=
EXTT1=
EXTT2=
EXTT3=
EXTT4=
EXTT5=
EXTT6=
EXTT7=
EXTT8=
EXTT9=
EXTT10=
EXTT11=
EXTT12=
EXTT13=
EXTT14=
PLAYORDER=
